<svg xmlns="http://www.w3.org/2000/svg" width="980" height="420" viewBox="0 0 980 420" fill="none">
  <defs>
    <linearGradient id="bg" x1="0" y1="0" x2="980" y2="420" gradientUnits="userSpaceOnUse">
      <stop stop-color="#F5F8FF"/>
      <stop offset="1" stop-color="#EEF4FF"/>
    </linearGradient>
    <linearGradient id="blue" x1="0" y1="0" x2="0" y2="1">
      <stop stop-color="#7DB6FF"/>
      <stop offset="1" stop-color="#4B83F5"/>
    </linearGradient>
    <filter id="shadow" x="-20%" y="-20%" width="140%" height="160%">
      <feDropShadow dx="0" dy="10" stdDeviation="16" flood-color="#8BA7D9" flood-opacity="0.18"/>
    </filter>
    <g id="iconImage">
      <rect x="18" y="22" width="140" height="116" rx="24" fill="#DCE9FF" stroke="#2E5FD0" stroke-width="10"/>
      <circle cx="62" cy="58" r="12" fill="#6C95F7"/>
      <path d="M34 118L66 82L89 102L112 74L146 118" stroke="#2E5FD0" stroke-width="12" stroke-linecap="round" stroke-linejoin="round"/>
    </g>
    <g id="iconVideo">
      <rect x="18" y="22" width="140" height="116" rx="24" fill="#DCE9FF" stroke="#2E5FD0" stroke-width="10"/>
      <path d="M74 62L112 80L74 98V62Z" fill="#2E5FD0"/>
      <rect x="34" y="36" width="10" height="14" rx="5" fill="#6C95F7"/>
      <rect x="34" y="58" width="10" height="14" rx="5" fill="#6C95F7"/>
      <rect x="34" y="80" width="10" height="14" rx="5" fill="#6C95F7"/>
      <rect x="34" y="102" width="10" height="14" rx="5" fill="#6C95F7"/>
      <rect x="132" y="36" width="10" height="14" rx="5" fill="#6C95F7"/>
      <rect x="132" y="58" width="10" height="14" rx="5" fill="#6C95F7"/>
      <rect x="132" y="80" width="10" height="14" rx="5" fill="#6C95F7"/>
      <rect x="132" y="102" width="10" height="14" rx="5" fill="#6C95F7"/>
    </g>
    <g id="iconAudio">
      <circle cx="88" cy="84" r="58" fill="#DCE9FF" stroke="#2E5FD0" stroke-width="10"/>
      <path d="M60 99H77L100 76V122L77 103H60C53.373 103 48 97.627 48 91C48 84.373 53.373 79 60 79H77" fill="#ffffff"/>
      <path d="M60 99H77L100 76V122L77 103H60C53.373 103 48 97.627 48 91C48 84.373 53.373 79 60 79H77" stroke="#2E5FD0" stroke-width="10" stroke-linejoin="round"/>
      <path d="M112 72C121.333 79.333 126 85.667 126 91C126 96.333 121.333 102.667 112 110" stroke="#6C95F7" stroke-width="10" stroke-linecap="round"/>
      <path d="M128 58C142.667 69.333 150 80.333 150 91C150 101.667 142.667 112.667 128 124" stroke="#2E5FD0" stroke-width="10" stroke-linecap="round"/>
    </g>
    <g id="iconPdf">
      <rect x="24" y="20" width="128" height="120" rx="28" fill="url(#blue)"/>
      <text x="88" y="95" text-anchor="middle" font-size="42" font-family="Inter, Arial, sans-serif" font-weight="800" fill="#ffffff">PDF</text>
    </g>
  </defs>

  <rect width="980" height="420" fill="url(#bg)"/>
  <text x="56" y="68" fill="#203867" font-size="32" font-family="Inter, Arial, sans-serif" font-weight="800">Media Icon Direction</text>
  <text x="56" y="100" fill="#5672A9" font-size="18" font-family="Inter, Arial, sans-serif">문서 바탕 없이 독립 아이콘으로 보이는 방향 시안</text>

  <g transform="translate(44 144)" filter="url(#shadow)">
    <rect width="892" height="220" rx="28" fill="#ffffff"/>

    <g transform="translate(44 22)">
      <use href="#iconImage"/>
      <text x="88" y="186" text-anchor="middle" fill="#1D3566" font-size="22" font-family="Inter, Arial, sans-serif" font-weight="700">Image</text>
    </g>

    <g transform="translate(258 22)">
      <use href="#iconVideo"/>
      <text x="88" y="186" text-anchor="middle" fill="#1D3566" font-size="22" font-family="Inter, Arial, sans-serif" font-weight="700">Video</text>
    </g>

    <g transform="translate(472 22)">
      <use href="#iconAudio"/>
      <text x="88" y="186" text-anchor="middle" fill="#1D3566" font-size="22" font-family="Inter, Arial, sans-serif" font-weight="700">Audio</text>
    </g>

    <g transform="translate(686 22)">
      <use href="#iconPdf"/>
      <text x="88" y="186" text-anchor="middle" fill="#1D3566" font-size="22" font-family="Inter, Arial, sans-serif" font-weight="700">PDF</text>
    </g>
  </g>
</svg>
