<svg xmlns="http://www.w3.org/2000/svg" width="1280" height="760" viewBox="0 0 1280 760" fill="none">
  <defs>
    <linearGradient id="bg" x1="0" y1="0" x2="1280" y2="760" gradientUnits="userSpaceOnUse">
      <stop stop-color="#F5F8FF"/>
      <stop offset="1" stop-color="#EEF4FF"/>
    </linearGradient>
    <linearGradient id="folderBlue" x1="0" y1="0" x2="0" y2="1">
      <stop stop-color="#7DB6FF"/>
      <stop offset="1" stop-color="#4B83F5"/>
    </linearGradient>
    <linearGradient id="folderBlueLight" x1="0" y1="0" x2="0" y2="1">
      <stop stop-color="#A8CCFF"/>
      <stop offset="1" stop-color="#73A5FB"/>
    </linearGradient>
    <filter id="cardShadow" x="-20%" y="-20%" width="140%" height="160%">
      <feDropShadow dx="0" dy="8" stdDeviation="16" flood-color="#8BA7D9" flood-opacity="0.18"/>
    </filter>
    <g id="folderShape">
      <path d="M18 42C18 32.059 26.059 24 36 24H74L88 40H154C163.941 40 172 48.059 172 58V138C172 147.941 163.941 156 154 156H36C26.059 156 18 147.941 18 138V42Z" fill="url(#folderBlue)"/>
      <path d="M18 56C18 46.059 26.059 38 36 38H70C74.347 38 78.487 39.885 81.336 43.168L88.4 51.307C90.3 53.497 93.055 54.753 95.954 54.753H154C163.941 54.753 172 62.812 172 72.753V138C172 147.941 163.941 156 154 156H36C26.059 156 18 147.941 18 138V56Z" fill="url(#folderBlueLight)"/>
      <path d="M18 58C18 48.059 26.059 40 36 40H74L88 56H154C163.941 56 172 64.059 172 74V138C172 147.941 163.941 156 154 156H36C26.059 156 18 147.941 18 138V58Z" fill="url(#folderBlue)"/>
    </g>
    <g id="docBase">
      <path d="M40 18H112L146 52V150C146 161.046 137.046 170 126 170H40C28.954 170 20 161.046 20 150V38C20 26.954 28.954 18 40 18Z" fill="#E8F0FF"/>
      <path d="M112 18V44C112 51.732 118.268 58 126 58H146" fill="#C7DAFF"/>
      <path d="M112 18V44C112 51.732 118.268 58 126 58H146" stroke="#9CB9F8" stroke-width="8" stroke-linejoin="round"/>
      <path d="M40 18H112L146 52V150C146 161.046 137.046 170 126 170H40C28.954 170 20 161.046 20 150V38C20 26.954 28.954 18 40 18Z" stroke="#4B83F5" stroke-width="8" stroke-linejoin="round"/>
    </g>
    <g id="iconFile">
      <use href="#docBase"/>
      <rect x="42" y="78" width="82" height="10" rx="5" fill="#6C95F7"/>
      <rect x="42" y="100" width="62" height="10" rx="5" fill="#9CB9F8"/>
      <rect x="42" y="122" width="70" height="10" rx="5" fill="#9CB9F8"/>
    </g>
    <g id="iconText">
      <use href="#docBase"/>
      <rect x="42" y="74" width="82" height="10" rx="5" fill="#2E5FD0"/>
      <rect x="42" y="96" width="82" height="10" rx="5" fill="#6C95F7"/>
      <rect x="42" y="118" width="82" height="10" rx="5" fill="#6C95F7"/>
      <rect x="42" y="140" width="54" height="10" rx="5" fill="#6C95F7"/>
    </g>
    <g id="iconImage">
      <use href="#docBase"/>
      <rect x="40" y="70" width="86" height="58" rx="10" fill="#D7E5FF" stroke="#6C95F7" stroke-width="6"/>
      <circle cx="61" cy="89" r="8" fill="#6C95F7"/>
      <path d="M48 120L72 96L89 112L106 98L126 120" stroke="#2E5FD0" stroke-width="8" stroke-linecap="round" stroke-linejoin="round"/>
    </g>
    <g id="iconArchive">
      <use href="#docBase"/>
      <rect x="52" y="68" width="44" height="64" rx="10" fill="#D7E5FF" stroke="#2E5FD0" stroke-width="8"/>
      <rect x="50" y="82" width="48" height="14" rx="7" fill="#2E5FD0"/>
      <path d="M74 100V132" stroke="#2E5FD0" stroke-width="8" stroke-linecap="round"/>
      <path d="M64 118L74 128L84 118" stroke="#2E5FD0" stroke-width="8" stroke-linecap="round" stroke-linejoin="round"/>
    </g>
    <g id="iconPdf">
      <use href="#docBase"/>
      <rect x="40" y="112" width="86" height="28" rx="14" fill="#2E5FD0"/>
      <path d="M52 83C52 74.716 58.716 68 67 68H99C107.284 68 114 74.716 114 83V99H52V83Z" fill="#D7E5FF" stroke="#2E5FD0" stroke-width="8"/>
      <text x="83" y="132" text-anchor="middle" font-size="24" font-family="Inter, Arial, sans-serif" font-weight="800" fill="#ffffff">PDF</text>
    </g>
    <g id="iconVideo">
      <use href="#docBase"/>
      <rect x="38" y="72" width="90" height="56" rx="12" fill="#D7E5FF" stroke="#2E5FD0" stroke-width="8"/>
      <path d="M74 89L98 100L74 111V89Z" fill="#2E5FD0"/>
      <rect x="50" y="138" width="66" height="10" rx="5" fill="#6C95F7"/>
    </g>
  </defs>

  <rect width="1280" height="760" fill="url(#bg)"/>
  <text x="70" y="86" fill="#203867" font-size="34" font-family="Inter, Arial, sans-serif" font-weight="800">HanDrive Icon Sample</text>
  <text x="70" y="120" fill="#5672A9" font-size="20" font-family="Inter, Arial, sans-serif">현재 파란 폴더 아이콘 톤에 맞춘 일반 파일 계열 시안</text>

  <g transform="translate(70 170)" filter="url(#cardShadow)">
    <rect width="1140" height="500" rx="28" fill="#ffffff"/>

    <g transform="translate(56 44)">
      <use href="#folderShape"/>
      <text x="95" y="196" text-anchor="middle" fill="#1D3566" font-size="24" font-family="Inter, Arial, sans-serif" font-weight="700">Folder</text>
    </g>

    <g transform="translate(246 44)">
      <use href="#iconFile"/>
      <text x="83" y="196" text-anchor="middle" fill="#1D3566" font-size="24" font-family="Inter, Arial, sans-serif" font-weight="700">File</text>
    </g>

    <g transform="translate(430 44)">
      <use href="#iconText"/>
      <text x="83" y="196" text-anchor="middle" fill="#1D3566" font-size="24" font-family="Inter, Arial, sans-serif" font-weight="700">Text</text>
    </g>

    <g transform="translate(614 44)">
      <use href="#iconImage"/>
      <text x="83" y="196" text-anchor="middle" fill="#1D3566" font-size="24" font-family="Inter, Arial, sans-serif" font-weight="700">Image</text>
    </g>

    <g transform="translate(798 44)">
      <use href="#iconArchive"/>
      <text x="83" y="196" text-anchor="middle" fill="#1D3566" font-size="24" font-family="Inter, Arial, sans-serif" font-weight="700">Archive</text>
    </g>

    <g transform="translate(982 44)">
      <use href="#iconPdf"/>
      <text x="83" y="196" text-anchor="middle" fill="#1D3566" font-size="24" font-family="Inter, Arial, sans-serif" font-weight="700">PDF</text>
    </g>

    <g transform="translate(338 254)">
      <use href="#iconVideo"/>
      <text x="83" y="196" text-anchor="middle" fill="#1D3566" font-size="24" font-family="Inter, Arial, sans-serif" font-weight="700">Video</text>
    </g>

    <g transform="translate(528 254)">
      <use href="#folderShape"/>
      <rect x="100" y="84" width="40" height="30" rx="10" fill="#F5F9FF"/>
      <path d="M106 98H134" stroke="#2E5FD0" stroke-width="8" stroke-linecap="round"/>
      <text x="95" y="196" text-anchor="middle" fill="#1D3566" font-size="24" font-family="Inter, Arial, sans-serif" font-weight="700">Folder Empty</text>
    </g>
  </g>
</svg>
