<svg xmlns="http://www.w3.org/2000/svg" viewBox="0 0 166 188" fill="none">
  <path d="M40 18H112L146 52V150C146 161.046 137.046 170 126 170H40C28.954 170 20 161.046 20 150V38C20 26.954 28.954 18 40 18Z" fill="#E8F0FF"/>
  <path d="M112 18V44C112 51.732 118.268 58 126 58H146" fill="#C7DAFF"/>
  <path d="M112 18V44C112 51.732 118.268 58 126 58H146" stroke="#9CB9F8" stroke-width="8" stroke-linejoin="round"/>
  <path d="M40 18H112L146 52V150C146 161.046 137.046 170 126 170H40C28.954 170 20 161.046 20 150V38C20 26.954 28.954 18 40 18Z" stroke="#4B83F5" stroke-width="8" stroke-linejoin="round"/>
  <rect x="52" y="68" width="44" height="64" rx="10" fill="#D7E5FF" stroke="#2E5FD0" stroke-width="8"/>
  <rect x="50" y="82" width="48" height="14" rx="7" fill="#2E5FD0"/>
  <path d="M74 100V132" stroke="#2E5FD0" stroke-width="8" stroke-linecap="round"/>
  <path d="M64 118L74 128L84 118" stroke="#2E5FD0" stroke-width="8" stroke-linecap="round" stroke-linejoin="round"/>
</svg>
